<svg xmlns="http://www.w3.org/2000/svg" version="1.1" style="font-family:Lato, &#x27;Helvetica Neue&#x27;, Helvetica, Arial, &#x27;Liberation Sans&#x27;, sans-serif;font-size:18px;background-color:#ffffff;text-rendering:geometricPrecision;-webkit-font-smoothing:antialiased" width="850" height="600" viewBox="0 0 850 600"><defs><style>@import url(https://ourworldindata.org/fonts.css)</style></defs><defs><pattern id="noDataPattern" patternUnits="userSpaceOnUse" width="4" height="4" patternTransform="rotate(-45 2 2)"><path d="M -1,2 l 6,0" stroke="#ccc" stroke-width="0.7"></path></pattern></defs><rect class="background-fill" fill="#ffffff" width="850" height="600"></rect><g id="header" class="HeaderView"><g id="logo" transform="translate(769, 16) scale(1)"><svg className="owidLogo" xmlns="http://www.w3.org/2000/svg" width="65" height="36" viewBox="0 0 65 36"  fill="none"><path fill="#002147" d="M0 0h64.8v36H0z"/><path fill="#CE261E" d="M0 33.3h64.8V36H0z"/><path fill="#fff" d="M13.796 10.575c0 .636-.106 1.226-.318 1.77a4.193 4.193 0 0 1-.894 1.404 4.084 4.084 0 0 1-1.386.93c-.54.22-1.138.33-1.794.33-.656 0-1.256-.11-1.8-.33a4.149 4.149 0 0 1-1.392-.93 4.193 4.193 0 0 1-.894-1.404A4.833 4.833 0 0 1 5 10.575c0-.636.106-1.224.318-1.764a4.18 4.18 0 0 1 .894-1.41 4.076 4.076 0 0 1 1.392-.924 4.684 4.684 0 0 1 1.8-.336c.656 0 1.254.112 1.794.336.54.224 1.002.534 1.386.93.384.392.682.86.894 1.404.212.54.318 1.128.318 1.764Zm-1.656 0c0-.476-.064-.902-.192-1.278a2.671 2.671 0 0 0-.54-.966 2.332 2.332 0 0 0-.864-.606 2.94 2.94 0 0 0-1.14-.21c-.424 0-.806.07-1.146.21-.34.14-.63.342-.87.606a2.742 2.742 0 0 0-.546.966 3.955 3.955 0 0 0-.192 1.278c0 .476.064.904.192 1.284.128.376.31.696.546.96.24.26.53.46.87.6.34.14.722.21 1.146.21.424 0 .804-.07 1.14-.21.34-.14.628-.34.864-.6.236-.264.416-.584.54-.96a4.01 4.01 0 0 0 .192-1.284ZM16.104 8.757v3.912c0 .376.086.668.258.876.176.204.438.306.786.306.256 0 .496-.056.72-.168a2.58 2.58 0 0 0 .636-.474V8.757h1.482v6.156h-.906c-.192 0-.318-.09-.378-.27l-.102-.492a4.65 4.65 0 0 1-.396.354 2.577 2.577 0 0 1-.438.27 2.35 2.35 0 0 1-.498.168 2.345 2.345 0 0 1-.57.066c-.336 0-.634-.056-.894-.168a1.821 1.821 0 0 1-.648-.486 2.157 2.157 0 0 1-.402-.738 3.233 3.233 0 0 1-.132-.948V8.757h1.482ZM21.328 14.913V8.757h.87c.152 0 .258.028.318.084.06.056.1.152.12.288l.09.744c.22-.38.478-.68.774-.9.296-.22.628-.33.996-.33.304 0 .556.07.756.21l-.192 1.11c-.012.072-.038.124-.078.156a.278.278 0 0 1-.162.042 1.01 1.01 0 0 1-.246-.042 1.646 1.646 0 0 0-.414-.042c-.308 0-.572.086-.792.258-.22.168-.406.416-.558.744v3.834h-1.482ZM27.347 6.237h1.356a.57.57 0 0 1 .348.102c.096.064.16.152.192.264l1.476 5.19c.036.128.068.268.096.42.032.148.062.306.09.474a5.968 5.968 0 0 1 .228-.894l1.704-5.19a.575.575 0 0 1 .186-.252.543.543 0 0 1 .348-.114h.474a.57.57 0 0 1 .348.102.497.497 0 0 1 .192.264l1.692 5.19c.088.256.164.54.228.852.028-.156.056-.306.084-.45.032-.144.064-.278.096-.402l1.476-5.19c.028-.1.09-.186.186-.258a.563.563 0 0 1 .348-.108h1.266l-2.694 8.676h-1.458l-1.896-5.928-.078-.246a9.504 9.504 0 0 1-.072-.282c-.024.1-.05.194-.078.282-.024.088-.048.17-.072.246l-1.914 5.928H30.04l-2.694-8.676ZM42.771 8.661c.46 0 .876.074 1.248.222.376.148.696.358.96.63s.468.604.612.996c.144.392.216.83.216 1.314 0 .488-.072.928-.216 1.32a2.85 2.85 0 0 1-.612 1.002 2.653 2.653 0 0 1-.96.636 3.35 3.35 0 0 1-1.248.222c-.46 0-.878-.074-1.254-.222a2.712 2.712 0 0 1-.966-.636 2.922 2.922 0 0 1-.618-1.002 3.807 3.807 0 0 1-.216-1.32c0-.484.072-.922.216-1.314.148-.392.354-.724.618-.996.268-.272.59-.482.966-.63a3.397 3.397 0 0 1 1.254-.222Zm0 5.202c.512 0 .89-.172 1.134-.516.248-.344.372-.848.372-1.512s-.124-1.17-.372-1.518c-.244-.348-.622-.522-1.134-.522-.52 0-.904.176-1.152.528-.248.348-.372.852-.372 1.512s.124 1.164.372 1.512c.248.344.632.516 1.152.516ZM46.723 14.913V8.757h.87c.152 0 .258.028.318.084.06.056.1.152.12.288l.09.744c.22-.38.478-.68.774-.9.296-.22.628-.33.996-.33.304 0 .556.07.756.21l-.192 1.11c-.012.072-.038.124-.078.156a.278.278 0 0 1-.162.042 1.01 1.01 0 0 1-.246-.042 1.646 1.646 0 0 0-.414-.042c-.308 0-.572.086-.792.258-.22.168-.406.416-.558.744v3.834h-1.482ZM52.96 5.997v8.916h-1.482V5.997h1.482ZM58.732 14.913c-.192 0-.318-.09-.378-.27l-.12-.594a3.68 3.68 0 0 1-.402.39c-.14.116-.292.216-.456.3-.16.084-.334.148-.522.192a2.372 2.372 0 0 1-.6.072c-.336 0-.644-.07-.924-.21a2.098 2.098 0 0 1-.726-.606 3.033 3.033 0 0 1-.468-.99 5.072 5.072 0 0 1-.162-1.344c0-.456.062-.88.186-1.272s.302-.732.534-1.02c.232-.288.51-.512.834-.672a2.384 2.384 0 0 1 1.092-.246 2.103 2.103 0 0 1 1.536.606V5.997h1.482v8.916h-.906Zm-1.974-1.086c.308 0 .57-.064.786-.192.216-.128.42-.31.612-.546v-2.76a1.452 1.452 0 0 0-.552-.432 1.597 1.597 0 0 0-.636-.126c-.224 0-.428.042-.612.126a1.21 1.21 0 0 0-.462.384c-.124.168-.22.384-.288.648-.068.26-.102.568-.102.924 0 .36.028.666.084.918.06.248.144.452.252.612.108.156.24.27.396.342.156.068.33.102.522.102ZM16.331 20.757v6.156H14.85v-6.156h1.481Zm.223-1.794a.844.844 0 0 1-.078.36.963.963 0 0 1-.21.294.995.995 0 0 1-.3.204.963.963 0 0 1-.372.072.948.948 0 0 1-.367-.072 1.018 1.018 0 0 1-.498-.498.963.963 0 0 1 0-.732.995.995 0 0 1 .205-.3.929.929 0 0 1 .293-.198.899.899 0 0 1 .738 0 .912.912 0 0 1 .3.198.943.943 0 0 1 .288.672ZM17.771 26.913v-6.156h.906c.192 0 .318.09.378.27l.102.486a2.934 2.934 0 0 1 .828-.618c.156-.076.322-.134.498-.174.176-.04.368-.06.576-.06.336 0 .634.058.894.174.26.112.476.272.648.48.176.204.308.45.396.738.092.284.138.598.138.942v3.918h-1.482v-3.918c0-.376-.088-.666-.264-.87-.172-.208-.432-.312-.78-.312-.256 0-.496.058-.72.174a2.58 2.58 0 0 0-.636.474v4.452h-1.482ZM34.22 22.575c0 .636-.106 1.22-.318 1.752-.212.532-.51.99-.894 1.374a4 4 0 0 1-1.386.894 4.87 4.87 0 0 1-1.794.318h-3.312v-8.676h3.312a4.79 4.79 0 0 1 1.794.324 4 4 0 0 1 1.386.894c.384.38.682.836.894 1.368.212.532.318 1.116.318 1.752Zm-1.65 0c0-.476-.064-.902-.192-1.278a2.68 2.68 0 0 0-.546-.96 2.332 2.332 0 0 0-.864-.606 2.94 2.94 0 0 0-1.14-.21h-1.686v6.108h1.686c.424 0 .804-.07 1.14-.21.34-.14.628-.34.864-.6a2.75 2.75 0 0 0 .546-.96 4.01 4.01 0 0 0 .192-1.284ZM39.98 26.913h-.665c-.14 0-.25-.02-.33-.06-.08-.044-.14-.13-.18-.258l-.132-.438c-.156.14-.31.264-.462.372a2.804 2.804 0 0 1-.462.264c-.16.072-.33.126-.51.162-.18.036-.38.054-.6.054-.26 0-.5-.034-.72-.102a1.618 1.618 0 0 1-.57-.318 1.448 1.448 0 0 1-.366-.522 1.852 1.852 0 0 1-.132-.726c0-.232.06-.46.18-.684.124-.228.328-.432.612-.612.284-.184.662-.336 1.134-.456.472-.12 1.058-.188 1.758-.204v-.36c0-.412-.088-.716-.264-.912-.172-.2-.424-.3-.756-.3a1.837 1.837 0 0 0-1.02.276c-.116.068-.224.13-.324.186a.664.664 0 0 1-.33.084.429.429 0 0 1-.258-.078.614.614 0 0 1-.174-.192l-.27-.474c.708-.648 1.562-.972 2.562-.972.36 0 .68.06.96.18.284.116.524.28.72.492.196.208.344.458.444.75.104.292.156.612.156.96v3.888Zm-2.88-.924c.153 0 .293-.014.42-.042.129-.028.249-.07.36-.126.117-.056.227-.124.33-.204.109-.084.217-.182.325-.294v-1.038c-.432.02-.794.058-1.086.114-.288.052-.52.12-.696.204a.923.923 0 0 0-.378.294.664.664 0 0 0-.108.366c0 .26.076.446.228.558.156.112.358.168.606.168ZM43.22 27.01c-.532 0-.942-.15-1.23-.45-.288-.305-.432-.723-.432-1.255v-3.438h-.624a.31.31 0 0 1-.21-.078c-.056-.052-.084-.13-.084-.234v-.588l.99-.162.312-1.68a.302.302 0 0 1 .108-.186.365.365 0 0 1 .222-.066h.768v1.938h1.62v1.056h-1.62v3.336c0 .192.048.342.144.45a.488.488 0 0 0 .384.162c.092 0 .168-.01.228-.03.064-.024.118-.048.162-.072.048-.024.09-.046.126-.066a.194.194 0 0 1 .108-.036.16.16 0 0 1 .108.036c.028.02.058.052.09.096l.444.72c-.216.18-.464.316-.744.408a2.77 2.77 0 0 1-.87.138ZM50.423 26.913h-.666c-.14 0-.25-.02-.33-.06-.08-.044-.14-.13-.18-.258l-.132-.438c-.156.14-.31.264-.462.372a2.804 2.804 0 0 1-.462.264c-.16.072-.33.126-.51.162-.18.036-.38.054-.6.054-.26 0-.5-.034-.72-.102a1.618 1.618 0 0 1-.57-.318 1.448 1.448 0 0 1-.366-.522 1.852 1.852 0 0 1-.132-.726c0-.232.06-.46.18-.684.124-.228.328-.432.612-.612.284-.184.662-.336 1.134-.456.472-.12 1.058-.188 1.758-.204v-.36c0-.412-.088-.716-.264-.912-.172-.2-.424-.3-.756-.3a1.837 1.837 0 0 0-1.02.276c-.116.068-.224.13-.324.186a.664.664 0 0 1-.33.084.429.429 0 0 1-.258-.078.614.614 0 0 1-.174-.192l-.27-.474c.708-.648 1.562-.972 2.562-.972.36 0 .68.06.96.18.284.116.524.28.72.492.196.208.344.458.444.75.104.292.156.612.156.96v3.888Zm-2.88-.924c.152 0 .292-.014.42-.042.128-.028.248-.07.36-.126.116-.056.226-.124.33-.204.108-.084.216-.182.324-.294v-1.038c-.432.02-.794.058-1.086.114-.288.052-.52.12-.696.204a.923.923 0 0 0-.378.294.664.664 0 0 0-.108.366c0 .26.076.446.228.558.156.112.358.168.606.168Z"/></svg></g><a id="title" href="https://ourworldindata.org/explorers/animal-welfare?country=OWID_WRL~USA~CHN~IND~BRA~GBR~IDN&amp;Metric=Animals+slaughtered&amp;Animal=All+land+animals+%28total%29&amp;Per+person=false" style="font-family:&#x27;Playfair Display&#x27;, Georgia, &#x27;Times New Roman&#x27;, &#x27;Liberation Serif&#x27;, serif" target="_blank" rel="noopener"><text font-size="22.25" font-weight="600" x="16.0" y="37.6" fill="#5b5b5b"><tspan x="16" y="37.582499999999996">Number of land animals slaughtered for meat per year, 1961 to 2022</tspan></text></a><g id="subtitle" class="markdown-text-wrap"><text x="16.0" y="60.9" style="font-size:14.625px;line-height:1.2" fill="#5b5b5b"><tspan x="16" y="60.9">This data is based on the country of production, not consumption.</tspan></text></g></g><g id="chart-area" style="pointer-events:none"><g id="horizontal-axis" class="HorizontalAxis"><g id="tick-marks"><line id="1961" x1="124.8" y1="530.8" x2="124.8" y2="536.3" stroke="#999" stroke-width="1"></line><line id="2022" x1="702.6" y1="530.8" x2="702.6" y2="536.3" stroke="#999" stroke-width="1"></line><line id="1970" x1="210.1" y1="530.8" x2="210.1" y2="536.3" stroke="#999" stroke-width="1"></line><line id="1980" x1="304.8" y1="530.8" x2="304.8" y2="536.3" stroke="#999" stroke-width="1"></line><line id="1990" x1="399.5" y1="530.8" x2="399.5" y2="536.3" stroke="#999" stroke-width="1"></line><line id="2000" x1="494.2" y1="530.8" x2="494.2" y2="536.3" stroke="#999" stroke-width="1"></line><line id="2010" x1="588.9" y1="530.8" x2="588.9" y2="536.3" stroke="#999" stroke-width="1"></line></g><g id="tick-labels"><text x="124.81500000000001" y="549.8" fill="#5b5b5b" text-anchor="start" font-size="13.5">1961</text><text x="702.61" y="549.8" fill="#5b5b5b" text-anchor="end" font-size="13.5">2022</text><text x="210.1" y="549.8" fill="#5b5b5b" text-anchor="middle" font-size="13.5">1970</text><text x="304.8" y="549.8" fill="#5b5b5b" text-anchor="middle" font-size="13.5">1980</text><text x="399.5" y="549.8" fill="#5b5b5b" text-anchor="middle" font-size="13.5">1990</text><text x="494.2" y="549.8" fill="#5b5b5b" text-anchor="middle" font-size="13.5">2000</text><text x="588.9" y="549.8" fill="#5b5b5b" text-anchor="middle" font-size="13.5">2010</text></g></g><g id="vertical-axis" class="VerticalAxis"><g id="tick-labels"><text x="119.82" y="531.3" dy=".32em" text-anchor="end" fill="#5b5b5b" font-size="13.5">0 animals</text><text x="119.82" y="477.9" dy=".32em" text-anchor="end" fill="#5b5b5b" font-size="13.5">10 billion animals</text><text x="119.82" y="424.4" dy=".32em" text-anchor="end" fill="#5b5b5b" font-size="13.5">20 billion animals</text><text x="119.82" y="371" dy=".32em" text-anchor="end" fill="#5b5b5b" font-size="13.5">30 billion animals</text><text x="119.82" y="317.6" dy=".32em" text-anchor="end" fill="#5b5b5b" font-size="13.5">40 billion animals</text><text x="119.82" y="264.2" dy=".32em" text-anchor="end" fill="#5b5b5b" font-size="13.5">50 billion animals</text><text x="119.82" y="210.7" dy=".32em" text-anchor="end" fill="#5b5b5b" font-size="13.5">60 billion animals</text><text x="119.82" y="157.3" dy=".32em" text-anchor="end" fill="#5b5b5b" font-size="13.5">70 billion animals</text><text x="119.82" y="103.9" dy=".32em" text-anchor="end" fill="#5b5b5b" font-size="13.5">80 billion animals</text></g></g><g id="horizontal-grid-lines" class="AxisGridLines horizontalLines"><line id="0-animals" x1="124.82" y1="531.3" x2="702.61" y2="531.3" stroke="#999" stroke-width="1"></line><line id="10-billion-animals" x1="124.82" y1="477.9" x2="702.61" y2="477.9" stroke="#ddd" stroke-width="1" stroke-dasharray="3,2"></line><line id="20-billion-animals" x1="124.82" y1="424.4" x2="702.61" y2="424.4" stroke="#ddd" stroke-width="1" stroke-dasharray="3,2"></line><line id="30-billion-animals" x1="124.82" y1="371" x2="702.61" y2="371" stroke="#ddd" stroke-width="1" stroke-dasharray="3,2"></line><line id="40-billion-animals" x1="124.82" y1="317.6" x2="702.61" y2="317.6" stroke="#ddd" stroke-width="1" stroke-dasharray="3,2"></line><line id="50-billion-animals" x1="124.82" y1="264.2" x2="702.61" y2="264.2" stroke="#ddd" stroke-width="1" stroke-dasharray="3,2"></line><line id="60-billion-animals" x1="124.82" y1="210.7" x2="702.61" y2="210.7" stroke="#ddd" stroke-width="1" stroke-dasharray="3,2"></line><line id="70-billion-animals" x1="124.82" y1="157.3" x2="702.61" y2="157.3" stroke="#ddd" stroke-width="1" stroke-dasharray="3,2"></line><line id="80-billion-animals" x1="124.82" y1="103.9" x2="702.61" y2="103.9" stroke="#ddd" stroke-width="1" stroke-dasharray="3,2"></line></g><g id="line-labels" class="LineLabels"><g id="connectors"></g><g id="text-annotations"></g><g id="text-labels"></g><g id="connectors"><path id="World" d="M706.61,86.3 H720.11 V87 H733.61" stroke="#999" stroke-width="0.5" fill="none"></path><path id="China" d="M706.61,445.9 H720.11 V445.9 H733.61" stroke="#999" stroke-width="0.5" fill="none"></path><path id="United-States" d="M706.61,478.2 H713.36 V473.48 H733.61" stroke="#999" stroke-width="0.5" fill="none"></path><path id="Brazil" d="M706.61,498 H720.11 V488.98 H733.61" stroke="#999" stroke-width="0.5" fill="none"></path><path id="Indonesia" d="M706.61,506.5 H726.86 V504.48 H733.61" stroke="#999" stroke-width="0.5" fill="none"></path><path id="India" d="M706.61,514.7 H726.86 V519.98 H733.61" stroke="#999" stroke-width="0.5" fill="none"></path><path id="United-Kingdom" d="M706.61,525 H720.11 V535.48 H733.61" stroke="#999" stroke-width="0.5" fill="none"></path></g><g id="text-annotations"></g><g id="text-labels"><text font-size="13.50" font-weight="400" x="737.6" y="92.0" fill="#883039" opacity="1"><tspan x="737.61" y="91.995">World</tspan></text><text font-size="13.50" font-weight="400" x="737.6" y="450.9" fill="#b13507" opacity="1"><tspan x="737.61" y="450.895">China</tspan></text><text font-size="13.50" font-weight="400" x="737.6" y="478.5" fill="#6d3e91" opacity="1"><tspan x="737.61" y="478.475">United States</tspan></text><text font-size="13.50" font-weight="400" x="737.6" y="494.0" fill="#4c6a9c" opacity="1"><tspan x="737.61" y="493.975">Brazil</tspan></text><text font-size="13.50" font-weight="400" x="737.6" y="509.5" fill="#d73c50" opacity="1"><tspan x="737.61" y="509.475">Indonesia</tspan></text><text font-size="13.50" font-weight="400" x="737.6" y="525.0" fill="#996d39" opacity="1"><tspan x="737.61" y="524.975">India</tspan></text><text font-size="13.50" font-weight="400" x="737.6" y="540.5" fill="#2c8465" opacity="1"><tspan x="737.61" y="540.475">United Kingdom</tspan></text></g></g><g id="lines"><path fill="none" stroke-linecap="butt" stroke-linejoin="round" stroke="#ffffff" stroke-width="2.5" id="outline__World" d="M124.8 486.6L134.3 484.9L143.8 482.6L153.2 480.9L162.7 477.2L172.2 475.9L181.6 470.9L191.1 469L200.6 465.3L210.1 460.2L219.5 457.6L229 453.1L238.5 450L248 447L257.4 445.8L266.9 440.6L276.4 435.3L285.8 429.4L295.3 422.2L304.8 416.7L314.3 411.3L323.7 407.5L333.2 404.5L342.7 402.1L352.1 396.8L361.6 390.2L371.1 380.2L380.6 374.4L390 372.1L399.5 364.1L409 358.4L418.4 351.6L427.9 342.6L437.4 334.4L446.9 321.8L456.3 316.5L465.8 308.3L475.3 303.1L484.8 291.3L494.2 282.5L503.7 273.8L513.2 264.9L522.6 260.4L532.1 255.1L541.6 241.8L551.1 237.3L560.5 220L570 206.2L579.5 196L588.9 188.3L598.4 178.8L607.9 171.2L617.4 166L626.8 158.2L636.3 145.9L645.8 138L655.2 120.8L664.7 113.3L674.2 102.6L683.7 98.3L693.1 94.4L702.6 86.3"></path><path fill="none" stroke-linecap="butt" stroke-linejoin="round" stroke="#883039" stroke-width="1.5" id="line__World" d="M124.8 486.6L134.3 484.9L143.8 482.6L153.2 480.9L162.7 477.2L172.2 475.9L181.6 470.9L191.1 469L200.6 465.3L210.1 460.2L219.5 457.6L229 453.1L238.5 450L248 447L257.4 445.8L266.9 440.6L276.4 435.3L285.8 429.4L295.3 422.2L304.8 416.7L314.3 411.3L323.7 407.5L333.2 404.5L342.7 402.1L352.1 396.8L361.6 390.2L371.1 380.2L380.6 374.4L390 372.1L399.5 364.1L409 358.4L418.4 351.6L427.9 342.6L437.4 334.4L446.9 321.8L456.3 316.5L465.8 308.3L475.3 303.1L484.8 291.3L494.2 282.5L503.7 273.8L513.2 264.9L522.6 260.4L532.1 255.1L541.6 241.8L551.1 237.3L560.5 220L570 206.2L579.5 196L588.9 188.3L598.4 178.8L607.9 171.2L617.4 166L626.8 158.2L636.3 145.9L645.8 138L655.2 120.8L664.7 113.3L674.2 102.6L683.7 98.3L693.1 94.4L702.6 86.3"></path><path fill="none" stroke-linecap="butt" stroke-linejoin="round" stroke="#ffffff" stroke-width="2.5" id="outline__United-States" d="M124.8 517.9L134.3 517.9L143.8 517.5L153.2 517.1L162.7 516.3L172.2 516.9L181.6 514.2L191.1 514.3L200.6 513.5L210.1 512.6L219.5 512.6L229 512L238.5 512.5L248 512.5L257.4 513.4L266.9 511.5L276.4 511L285.8 510L295.3 508.1L304.8 507.5L314.3 506.7L323.7 506.8L333.2 506.6L342.7 505.8L352.1 504.3L361.6 504.8L371.1 501.6L380.6 500.6L390 498.8L399.5 496.9L409 495.3L418.4 493.7L427.9 492.4L437.4 490.3L446.9 488.7L456.3 487.8L465.8 486.7L475.3 486.2L484.8 484.7L494.2 483.9L503.7 483L513.2 482.4L522.6 482.6L532.1 481.5L541.6 481L551.1 481.1L560.5 480.7L570 480.4L579.5 482.8L588.9 482.1L598.4 482.7L607.9 483.2L617.4 482.9L626.8 482.8L636.3 482L645.8 481.4L655.2 480.7L664.7 480.1L674.2 479.1L683.7 479.2L693.1 479.3L702.6 478.2"></path><path fill="none" stroke-linecap="butt" stroke-linejoin="round" stroke="#6D3E91" stroke-width="1.5" id="line__United-States" d="M124.8 517.9L134.3 517.9L143.8 517.5L153.2 517.1L162.7 516.3L172.2 516.9L181.6 514.2L191.1 514.3L200.6 513.5L210.1 512.6L219.5 512.6L229 512L238.5 512.5L248 512.5L257.4 513.4L266.9 511.5L276.4 511L285.8 510L295.3 508.1L304.8 507.5L314.3 506.7L323.7 506.8L333.2 506.6L342.7 505.8L352.1 504.3L361.6 504.8L371.1 501.6L380.6 500.6L390 498.8L399.5 496.9L409 495.3L418.4 493.7L427.9 492.4L437.4 490.3L446.9 488.7L456.3 487.8L465.8 486.7L475.3 486.2L484.8 484.7L494.2 483.9L503.7 483L513.2 482.4L522.6 482.6L532.1 481.5L541.6 481L551.1 481.1L560.5 480.7L570 480.4L579.5 482.8L588.9 482.1L598.4 482.7L607.9 483.2L617.4 482.9L626.8 482.8L636.3 482L645.8 481.4L655.2 480.7L664.7 480.1L674.2 479.1L683.7 479.2L693.1 479.3L702.6 478.2"></path><path fill="none" stroke-linecap="butt" stroke-linejoin="round" stroke="#ffffff" stroke-width="2.5" id="outline__United-Kingdom" d="M124.8 530.1L134.3 530L143.8 530L153.2 529.9L162.7 529.9L172.2 529.7L181.6 529.6L191.1 529.4L200.6 529.3L210.1 529.3L219.5 529.2L229 529L238.5 529L248 529L257.4 529.1L266.9 529L276.4 528.8L285.8 528.8L295.3 528.8L304.8 528.8L314.3 528.8L323.7 528.6L333.2 528.7L342.7 528.5L352.1 528.4L361.6 528.3L371.1 528.1L380.6 528L390 528.2L399.5 528.1L409 527.9L418.4 527.4L427.9 527.2L437.4 527L446.9 526.9L456.3 526.7L465.8 526.6L475.3 526.5L484.8 526.6L494.2 526.6L503.7 526.5L513.2 526.5L522.6 526.4L532.1 526.4L541.6 526.3L551.1 526.5L560.5 526.5L570 526.6L579.5 526.5L588.9 526.2L598.4 526.2L607.9 526.1L617.4 525.9L626.8 526L636.3 525.6L645.8 525.4L655.2 525.2L664.7 524.9L674.2 525.1L683.7 524.8L693.1 524.8L702.6 525"></path><path fill="none" stroke-linecap="butt" stroke-linejoin="round" stroke="#2C8465" stroke-width="1.5" id="line__United-Kingdom" d="M124.8 530.1L134.3 530L143.8 530L153.2 529.9L162.7 529.9L172.2 529.7L181.6 529.6L191.1 529.4L200.6 529.3L210.1 529.3L219.5 529.2L229 529L238.5 529L248 529L257.4 529.1L266.9 529L276.4 528.8L285.8 528.8L295.3 528.8L304.8 528.8L314.3 528.8L323.7 528.6L333.2 528.7L342.7 528.5L352.1 528.4L361.6 528.3L371.1 528.1L380.6 528L390 528.2L399.5 528.1L409 527.9L418.4 527.4L427.9 527.2L437.4 527L446.9 526.9L456.3 526.7L465.8 526.6L475.3 526.5L484.8 526.6L494.2 526.6L503.7 526.5L513.2 526.5L522.6 526.4L532.1 526.4L541.6 526.3L551.1 526.5L560.5 526.5L570 526.6L579.5 526.5L588.9 526.2L598.4 526.2L607.9 526.1L617.4 525.9L626.8 526L636.3 525.6L645.8 525.4L655.2 525.2L664.7 524.9L674.2 525.1L683.7 524.8L693.1 524.8L702.6 525"></path><path fill="none" stroke-linecap="butt" stroke-linejoin="round" stroke="#ffffff" stroke-width="2.5" id="outline__Indonesia" d="M124.8 530.9L134.3 530.9L143.8 530.9L153.2 530.9L162.7 530.9L172.2 530.9L181.6 530.9L191.1 530.9L200.6 530.9L210.1 530.9L219.5 530.8L229 530.7L238.5 530.7L248 530.7L257.4 530.6L266.9 530.6L276.4 530.6L285.8 530.5L295.3 530.3L304.8 530.1L314.3 530L323.7 529.9L333.2 529.5L342.7 529.4L352.1 529.1L361.6 528.9L371.1 528.7L380.6 528.5L390 528.2L399.5 527.8L409 527.3L418.4 526.9L427.9 526.5L437.4 525.7L446.9 525.4L456.3 524.9L465.8 525.2L475.3 527.1L484.8 527.1L494.2 525.8L503.7 525.1L513.2 523.8L522.6 523.6L532.1 523.1L541.6 523.6L551.1 522.6L560.5 522.1L570 520.9L579.5 520.8L588.9 520.6L598.4 519.9L607.9 519.8L617.4 519L626.8 518.7L636.3 517.5L645.8 516.2L655.2 506.7L664.7 505.1L674.2 504.3L683.7 506L693.1 508.6L702.6 506.5"></path><path fill="none" stroke-linecap="butt" stroke-linejoin="round" stroke="#D73C50" stroke-width="1.5" id="line__Indonesia" d="M124.8 530.9L134.3 530.9L143.8 530.9L153.2 530.9L162.7 530.9L172.2 530.9L181.6 530.9L191.1 530.9L200.6 530.9L210.1 530.9L219.5 530.8L229 530.7L238.5 530.7L248 530.7L257.4 530.6L266.9 530.6L276.4 530.6L285.8 530.5L295.3 530.3L304.8 530.1L314.3 530L323.7 529.9L333.2 529.5L342.7 529.4L352.1 529.1L361.6 528.9L371.1 528.7L380.6 528.5L390 528.2L399.5 527.8L409 527.3L418.4 526.9L427.9 526.5L437.4 525.7L446.9 525.4L456.3 524.9L465.8 525.2L475.3 527.1L484.8 527.1L494.2 525.8L503.7 525.1L513.2 523.8L522.6 523.6L532.1 523.1L541.6 523.6L551.1 522.6L560.5 522.1L570 520.9L579.5 520.8L588.9 520.6L598.4 519.9L607.9 519.8L617.4 519L626.8 518.7L636.3 517.5L645.8 516.2L655.2 506.7L664.7 505.1L674.2 504.3L683.7 506L693.1 508.6L702.6 506.5"></path><path fill="none" stroke-linecap="butt" stroke-linejoin="round" stroke="#ffffff" stroke-width="2.5" id="outline__India" d="M124.8 530.6L134.3 530.6L143.8 530.6L153.2 530.6L162.7 530.6L172.2 530.5L181.6 530.5L191.1 530.5L200.6 530.5L210.1 530.5L219.5 530.5L229 530.5L238.5 530.5L248 530.4L257.4 530.4L266.9 530.4L276.4 530.4L285.8 530.4L295.3 530.3L304.8 530.2L314.3 530.1L323.7 530L333.2 530L342.7 529.9L352.1 529.8L361.6 529.7L371.1 529.1L380.6 529L390 528.8L399.5 528.6L409 527.8L418.4 527.7L427.9 527.3L437.4 527.2L446.9 527.1L456.3 527L465.8 527L475.3 526.7L484.8 526.5L494.2 526.1L503.7 525.8L513.2 525.5L522.6 525L532.1 524.6L541.6 524.1L551.1 523.6L560.5 522.8L570 522.1L579.5 521.4L588.9 520.9L598.4 520.7L607.9 519.1L617.4 519.9L626.8 518L636.3 517.9L645.8 517.7L655.2 517.2L664.7 516.7L674.2 516.2L683.7 515.6L693.1 515.2L702.6 514.7"></path><path fill="none" stroke-linecap="butt" stroke-linejoin="round" stroke="#996D39" stroke-width="1.5" id="line__India" d="M124.8 530.6L134.3 530.6L143.8 530.6L153.2 530.6L162.7 530.6L172.2 530.5L181.6 530.5L191.1 530.5L200.6 530.5L210.1 530.5L219.5 530.5L229 530.5L238.5 530.5L248 530.4L257.4 530.4L266.9 530.4L276.4 530.4L285.8 530.4L295.3 530.3L304.8 530.2L314.3 530.1L323.7 530L333.2 530L342.7 529.9L352.1 529.8L361.6 529.7L371.1 529.1L380.6 529L390 528.8L399.5 528.6L409 527.8L418.4 527.7L427.9 527.3L437.4 527.2L446.9 527.1L456.3 527L465.8 527L475.3 526.7L484.8 526.5L494.2 526.1L503.7 525.8L513.2 525.5L522.6 525L532.1 524.6L541.6 524.1L551.1 523.6L560.5 522.8L570 522.1L579.5 521.4L588.9 520.9L598.4 520.7L607.9 519.1L617.4 519.9L626.8 518L636.3 517.9L645.8 517.7L655.2 517.2L664.7 516.7L674.2 516.2L683.7 515.6L693.1 515.2L702.6 514.7"></path><path fill="none" stroke-linecap="butt" stroke-linejoin="round" stroke="#ffffff" stroke-width="2.5" id="outline__China" d="M124.8 528L134.3 527.9L143.8 527.6L153.2 527.3L162.7 527.1L172.2 526.9L181.6 526.7L191.1 526.6L200.6 526.5L210.1 526.4L219.5 526.1L229 525.7L238.5 525.5L248 525.3L257.4 525.1L266.9 524.7L276.4 524.5L285.8 524.2L295.3 523.8L304.8 523.4L314.3 523.3L323.7 523L333.2 522.8L342.7 522.5L352.1 522.1L361.6 520.8L371.1 519.7L380.6 517.6L390 517.4L399.5 516.1L409 513.7L418.4 511.6L427.9 506.7L437.4 504.1L446.9 498.8L456.3 498.1L465.8 492.3L475.3 489.5L484.8 485.3L494.2 483.4L503.7 483.9L513.2 482.9L522.6 480.4L532.1 480.2L541.6 476.7L551.1 476.8L560.5 473.1L570 469.6L579.5 467.3L588.9 464.7L598.4 463L607.9 458.8L617.4 459.5L626.8 461L636.3 458.8L645.8 457.3L655.2 455.2L664.7 450.6L674.2 450.5L683.7 450.1L693.1 447.8L702.6 445.9"></path><path fill="none" stroke-linecap="butt" stroke-linejoin="round" stroke="#B13507" stroke-width="1.5" id="line__China" d="M124.8 528L134.3 527.9L143.8 527.6L153.2 527.3L162.7 527.1L172.2 526.9L181.6 526.7L191.1 526.6L200.6 526.5L210.1 526.4L219.5 526.1L229 525.7L238.5 525.5L248 525.3L257.4 525.1L266.9 524.7L276.4 524.5L285.8 524.2L295.3 523.8L304.8 523.4L314.3 523.3L323.7 523L333.2 522.8L342.7 522.5L352.1 522.1L361.6 520.8L371.1 519.7L380.6 517.6L390 517.4L399.5 516.1L409 513.7L418.4 511.6L427.9 506.7L437.4 504.1L446.9 498.8L456.3 498.1L465.8 492.3L475.3 489.5L484.8 485.3L494.2 483.4L503.7 483.9L513.2 482.9L522.6 480.4L532.1 480.2L541.6 476.7L551.1 476.8L560.5 473.1L570 469.6L579.5 467.3L588.9 464.7L598.4 463L607.9 458.8L617.4 459.5L626.8 461L636.3 458.8L645.8 457.3L655.2 455.2L664.7 450.6L674.2 450.5L683.7 450.1L693.1 447.8L702.6 445.9"></path><path fill="none" stroke-linecap="butt" stroke-linejoin="round" stroke="#ffffff" stroke-width="2.5" id="outline__Brazil" d="M124.8 530.5L134.3 530.5L143.8 530.3L153.2 530.3L162.7 530L172.2 529.9L181.6 529.7L191.1 529.6L200.6 529.6L210.1 529.3L219.5 529.3L229 529.1L238.5 528.6L248 528.5L257.4 528.5L266.9 528.1L276.4 527.7L285.8 526.9L295.3 525.7L304.8 524.4L314.3 524.4L323.7 523.9L333.2 524L342.7 525L352.1 524.4L361.6 523.8L371.1 523.1L380.6 523.2L390 522.9L399.5 521.6L409 520.5L418.4 519.5L427.9 518.4L437.4 517.3L446.9 514.8L456.3 514.8L465.8 515.7L475.3 515.5L484.8 513.9L494.2 513.4L503.7 512.1L513.2 510.3L522.6 509.8L532.1 507.8L541.6 505.6L551.1 506.2L560.5 503.1L570 501.4L579.5 500.9L588.9 504L598.4 502.4L607.9 502.6L617.4 501.8L626.8 501.3L636.3 499.7L645.8 499.3L655.2 499.4L664.7 500.2L674.2 499.6L683.7 498.8L693.1 498L702.6 498"></path><path fill="none" stroke-linecap="butt" stroke-linejoin="round" stroke="#4C6A9C" stroke-width="1.5" id="line__Brazil" d="M124.8 530.5L134.3 530.5L143.8 530.3L153.2 530.3L162.7 530L172.2 529.9L181.6 529.7L191.1 529.6L200.6 529.6L210.1 529.3L219.5 529.3L229 529.1L238.5 528.6L248 528.5L257.4 528.5L266.9 528.1L276.4 527.7L285.8 526.9L295.3 525.7L304.8 524.4L314.3 524.4L323.7 523.9L333.2 524L342.7 525L352.1 524.4L361.6 523.8L371.1 523.1L380.6 523.2L390 522.9L399.5 521.6L409 520.5L418.4 519.5L427.9 518.4L437.4 517.3L446.9 514.8L456.3 514.8L465.8 515.7L475.3 515.5L484.8 513.9L494.2 513.4L503.7 512.1L513.2 510.3L522.6 509.8L532.1 507.8L541.6 505.6L551.1 506.2L560.5 503.1L570 501.4L579.5 500.9L588.9 504L598.4 502.4L607.9 502.6L617.4 501.8L626.8 501.3L636.3 499.7L645.8 499.3L655.2 499.4L664.7 500.2L674.2 499.6L683.7 498.8L693.1 498L702.6 498"></path></g><g id="markers"><g id="markers__World"><circle id="1961" cx="124.8" cy="486.6" r="1.8" fill="#883039"></circle><circle id="1962" cx="134.3" cy="484.9" r="1.8" fill="#883039"></circle><circle id="1963" cx="143.8" cy="482.6" r="1.8" fill="#883039"></circle><circle id="1964" cx="153.2" cy="480.9" r="1.8" fill="#883039"></circle><circle id="1965" cx="162.7" cy="477.2" r="1.8" fill="#883039"></circle><circle id="1966" cx="172.2" cy="475.9" r="1.8" fill="#883039"></circle><circle id="1967" cx="181.6" cy="470.9" r="1.8" fill="#883039"></circle><circle id="1968" cx="191.1" cy="469" r="1.8" fill="#883039"></circle><circle id="1969" cx="200.6" cy="465.3" r="1.8" fill="#883039"></circle><circle id="1970" cx="210.1" cy="460.2" r="1.8" fill="#883039"></circle><circle id="1971" cx="219.5" cy="457.6" r="1.8" fill="#883039"></circle><circle id="1972" cx="229" cy="453.1" r="1.8" fill="#883039"></circle><circle id="1973" cx="238.5" cy="450" r="1.8" fill="#883039"></circle><circle id="1974" cx="248" cy="447" r="1.8" fill="#883039"></circle><circle id="1975" cx="257.4" cy="445.8" r="1.8" fill="#883039"></circle><circle id="1976" cx="266.9" cy="440.6" r="1.8" fill="#883039"></circle><circle id="1977" cx="276.4" cy="435.3" r="1.8" fill="#883039"></circle><circle id="1978" cx="285.8" cy="429.4" r="1.8" fill="#883039"></circle><circle id="1979" cx="295.3" cy="422.2" r="1.8" fill="#883039"></circle><circle id="1980" cx="304.8" cy="416.7" r="1.8" fill="#883039"></circle><circle id="1981" cx="314.3" cy="411.3" r="1.8" fill="#883039"></circle><circle id="1982" cx="323.7" cy="407.5" r="1.8" fill="#883039"></circle><circle id="1983" cx="333.2" cy="404.5" r="1.8" fill="#883039"></circle><circle id="1984" cx="342.7" cy="402.1" r="1.8" fill="#883039"></circle><circle id="1985" cx="352.1" cy="396.8" r="1.8" fill="#883039"></circle><circle id="1986" cx="361.6" cy="390.2" r="1.8" fill="#883039"></circle><circle id="1987" cx="371.1" cy="380.2" r="1.8" fill="#883039"></circle><circle id="1988" cx="380.6" cy="374.4" r="1.8" fill="#883039"></circle><circle id="1989" cx="390" cy="372.1" r="1.8" fill="#883039"></circle><circle id="1990" cx="399.5" cy="364.1" r="1.8" fill="#883039"></circle><circle id="1991" cx="409" cy="358.4" r="1.8" fill="#883039"></circle><circle id="1992" cx="418.4" cy="351.6" r="1.8" fill="#883039"></circle><circle id="1993" cx="427.9" cy="342.6" r="1.8" fill="#883039"></circle><circle id="1994" cx="437.4" cy="334.4" r="1.8" fill="#883039"></circle><circle id="1995" cx="446.9" cy="321.8" r="1.8" fill="#883039"></circle><circle id="1996" cx="456.3" cy="316.5" r="1.8" fill="#883039"></circle><circle id="1997" cx="465.8" cy="308.3" r="1.8" fill="#883039"></circle><circle id="1998" cx="475.3" cy="303.1" r="1.8" fill="#883039"></circle><circle id="1999" cx="484.8" cy="291.3" r="1.8" fill="#883039"></circle><circle id="2000" cx="494.2" cy="282.5" r="1.8" fill="#883039"></circle><circle id="2001" cx="503.7" cy="273.8" r="1.8" fill="#883039"></circle><circle id="2002" cx="513.2" cy="264.9" r="1.8" fill="#883039"></circle><circle id="2003" cx="522.6" cy="260.4" r="1.8" fill="#883039"></circle><circle id="2004" cx="532.1" cy="255.1" r="1.8" fill="#883039"></circle><circle id="2005" cx="541.6" cy="241.8" r="1.8" fill="#883039"></circle><circle id="2006" cx="551.1" cy="237.3" r="1.8" fill="#883039"></circle><circle id="2007" cx="560.5" cy="220" r="1.8" fill="#883039"></circle><circle id="2008" cx="570" cy="206.2" r="1.8" fill="#883039"></circle><circle id="2009" cx="579.5" cy="196" r="1.8" fill="#883039"></circle><circle id="2010" cx="588.9" cy="188.3" r="1.8" fill="#883039"></circle><circle id="2011" cx="598.4" cy="178.8" r="1.8" fill="#883039"></circle><circle id="2012" cx="607.9" cy="171.2" r="1.8" fill="#883039"></circle><circle id="2013" cx="617.4" cy="166" r="1.8" fill="#883039"></circle><circle id="2014" cx="626.8" cy="158.2" r="1.8" fill="#883039"></circle><circle id="2015" cx="636.3" cy="145.9" r="1.8" fill="#883039"></circle><circle id="2016" cx="645.8" cy="138" r="1.8" fill="#883039"></circle><circle id="2017" cx="655.2" cy="120.8" r="1.8" fill="#883039"></circle><circle id="2018" cx="664.7" cy="113.3" r="1.8" fill="#883039"></circle><circle id="2019" cx="674.2" cy="102.6" r="1.8" fill="#883039"></circle><circle id="2020" cx="683.7" cy="98.3" r="1.8" fill="#883039"></circle><circle id="2021" cx="693.1" cy="94.4" r="1.8" fill="#883039"></circle><circle id="2022" cx="702.6" cy="86.3" r="1.8" fill="#883039"></circle></g><g id="markers__United-States"><circle id="1961" cx="124.8" cy="517.9" r="1.8" fill="#6D3E91"></circle><circle id="1962" cx="134.3" cy="517.9" r="1.8" fill="#6D3E91"></circle><circle id="1963" cx="143.8" cy="517.5" r="1.8" fill="#6D3E91"></circle><circle id="1964" cx="153.2" cy="517.1" r="1.8" fill="#6D3E91"></circle><circle id="1965" cx="162.7" cy="516.3" r="1.8" fill="#6D3E91"></circle><circle id="1966" cx="172.2" cy="516.9" r="1.8" fill="#6D3E91"></circle><circle id="1967" cx="181.6" cy="514.2" r="1.8" fill="#6D3E91"></circle><circle id="1968" cx="191.1" cy="514.3" r="1.8" fill="#6D3E91"></circle><circle id="1969" cx="200.6" cy="513.5" r="1.8" fill="#6D3E91"></circle><circle id="1970" cx="210.1" cy="512.6" r="1.8" fill="#6D3E91"></circle><circle id="1971" cx="219.5" cy="512.6" r="1.8" fill="#6D3E91"></circle><circle id="1972" cx="229" cy="512" r="1.8" fill="#6D3E91"></circle><circle id="1973" cx="238.5" cy="512.5" r="1.8" fill="#6D3E91"></circle><circle id="1974" cx="248" cy="512.5" r="1.8" fill="#6D3E91"></circle><circle id="1975" cx="257.4" cy="513.4" r="1.8" fill="#6D3E91"></circle><circle id="1976" cx="266.9" cy="511.5" r="1.8" fill="#6D3E91"></circle><circle id="1977" cx="276.4" cy="511" r="1.8" fill="#6D3E91"></circle><circle id="1978" cx="285.8" cy="510" r="1.8" fill="#6D3E91"></circle><circle id="1979" cx="295.3" cy="508.1" r="1.8" fill="#6D3E91"></circle><circle id="1980" cx="304.8" cy="507.5" r="1.8" fill="#6D3E91"></circle><circle id="1981" cx="314.3" cy="506.7" r="1.8" fill="#6D3E91"></circle><circle id="1982" cx="323.7" cy="506.8" r="1.8" fill="#6D3E91"></circle><circle id="1983" cx="333.2" cy="506.6" r="1.8" fill="#6D3E91"></circle><circle id="1984" cx="342.7" cy="505.8" r="1.8" fill="#6D3E91"></circle><circle id="1985" cx="352.1" cy="504.3" r="1.8" fill="#6D3E91"></circle><circle id="1986" cx="361.6" cy="504.8" r="1.8" fill="#6D3E91"></circle><circle id="1987" cx="371.1" cy="501.6" r="1.8" fill="#6D3E91"></circle><circle id="1988" cx="380.6" cy="500.6" r="1.8" fill="#6D3E91"></circle><circle id="1989" cx="390" cy="498.8" r="1.8" fill="#6D3E91"></circle><circle id="1990" cx="399.5" cy="496.9" r="1.8" fill="#6D3E91"></circle><circle id="1991" cx="409" cy="495.3" r="1.8" fill="#6D3E91"></circle><circle id="1992" cx="418.4" cy="493.7" r="1.8" fill="#6D3E91"></circle><circle id="1993" cx="427.9" cy="492.4" r="1.8" fill="#6D3E91"></circle><circle id="1994" cx="437.4" cy="490.3" r="1.8" fill="#6D3E91"></circle><circle id="1995" cx="446.9" cy="488.7" r="1.8" fill="#6D3E91"></circle><circle id="1996" cx="456.3" cy="487.8" r="1.8" fill="#6D3E91"></circle><circle id="1997" cx="465.8" cy="486.7" r="1.8" fill="#6D3E91"></circle><circle id="1998" cx="475.3" cy="486.2" r="1.8" fill="#6D3E91"></circle><circle id="1999" cx="484.8" cy="484.7" r="1.8" fill="#6D3E91"></circle><circle id="2000" cx="494.2" cy="483.9" r="1.8" fill="#6D3E91"></circle><circle id="2001" cx="503.7" cy="483" r="1.8" fill="#6D3E91"></circle><circle id="2002" cx="513.2" cy="482.4" r="1.8" fill="#6D3E91"></circle><circle id="2003" cx="522.6" cy="482.6" r="1.8" fill="#6D3E91"></circle><circle id="2004" cx="532.1" cy="481.5" r="1.8" fill="#6D3E91"></circle><circle id="2005" cx="541.6" cy="481" r="1.8" fill="#6D3E91"></circle><circle id="2006" cx="551.1" cy="481.1" r="1.8" fill="#6D3E91"></circle><circle id="2007" cx="560.5" cy="480.7" r="1.8" fill="#6D3E91"></circle><circle id="2008" cx="570" cy="480.4" r="1.8" fill="#6D3E91"></circle><circle id="2009" cx="579.5" cy="482.8" r="1.8" fill="#6D3E91"></circle><circle id="2010" cx="588.9" cy="482.1" r="1.8" fill="#6D3E91"></circle><circle id="2011" cx="598.4" cy="482.7" r="1.8" fill="#6D3E91"></circle><circle id="2012" cx="607.9" cy="483.2" r="1.8" fill="#6D3E91"></circle><circle id="2013" cx="617.4" cy="482.9" r="1.8" fill="#6D3E91"></circle><circle id="2014" cx="626.8" cy="482.8" r="1.8" fill="#6D3E91"></circle><circle id="2015" cx="636.3" cy="482" r="1.8" fill="#6D3E91"></circle><circle id="2016" cx="645.8" cy="481.4" r="1.8" fill="#6D3E91"></circle><circle id="2017" cx="655.2" cy="480.7" r="1.8" fill="#6D3E91"></circle><circle id="2018" cx="664.7" cy="480.1" r="1.8" fill="#6D3E91"></circle><circle id="2019" cx="674.2" cy="479.1" r="1.8" fill="#6D3E91"></circle><circle id="2020" cx="683.7" cy="479.2" r="1.8" fill="#6D3E91"></circle><circle id="2021" cx="693.1" cy="479.3" r="1.8" fill="#6D3E91"></circle><circle id="2022" cx="702.6" cy="478.2" r="1.8" fill="#6D3E91"></circle></g><g id="markers__United-Kingdom"><circle id="1961" cx="124.8" cy="530.1" r="1.8" fill="#2C8465"></circle><circle id="1962" cx="134.3" cy="530" r="1.8" fill="#2C8465"></circle><circle id="1963" cx="143.8" cy="530" r="1.8" fill="#2C8465"></circle><circle id="1964" cx="153.2" cy="529.9" r="1.8" fill="#2C8465"></circle><circle id="1965" cx="162.7" cy="529.9" r="1.8" fill="#2C8465"></circle><circle id="1966" cx="172.2" cy="529.7" r="1.8" fill="#2C8465"></circle><circle id="1967" cx="181.6" cy="529.6" r="1.8" fill="#2C8465"></circle><circle id="1968" cx="191.1" cy="529.4" r="1.8" fill="#2C8465"></circle><circle id="1969" cx="200.6" cy="529.3" r="1.8" fill="#2C8465"></circle><circle id="1970" cx="210.1" cy="529.3" r="1.8" fill="#2C8465"></circle><circle id="1971" cx="219.5" cy="529.2" r="1.8" fill="#2C8465"></circle><circle id="1972" cx="229" cy="529" r="1.8" fill="#2C8465"></circle><circle id="1973" cx="238.5" cy="529" r="1.8" fill="#2C8465"></circle><circle id="1974" cx="248" cy="529" r="1.8" fill="#2C8465"></circle><circle id="1975" cx="257.4" cy="529.1" r="1.8" fill="#2C8465"></circle><circle id="1976" cx="266.9" cy="529" r="1.8" fill="#2C8465"></circle><circle id="1977" cx="276.4" cy="528.8" r="1.8" fill="#2C8465"></circle><circle id="1978" cx="285.8" cy="528.8" r="1.8" fill="#2C8465"></circle><circle id="1979" cx="295.3" cy="528.8" r="1.8" fill="#2C8465"></circle><circle id="1980" cx="304.8" cy="528.8" r="1.8" fill="#2C8465"></circle><circle id="1981" cx="314.3" cy="528.8" r="1.8" fill="#2C8465"></circle><circle id="1982" cx="323.7" cy="528.6" r="1.8" fill="#2C8465"></circle><circle id="1983" cx="333.2" cy="528.7" r="1.8" fill="#2C8465"></circle><circle id="1984" cx="342.7" cy="528.5" r="1.8" fill="#2C8465"></circle><circle id="1985" cx="352.1" cy="528.4" r="1.8" fill="#2C8465"></circle><circle id="1986" cx="361.6" cy="528.3" r="1.8" fill="#2C8465"></circle><circle id="1987" cx="371.1" cy="528.1" r="1.8" fill="#2C8465"></circle><circle id="1988" cx="380.6" cy="528" r="1.8" fill="#2C8465"></circle><circle id="1989" cx="390" cy="528.2" r="1.8" fill="#2C8465"></circle><circle id="1990" cx="399.5" cy="528.1" r="1.8" fill="#2C8465"></circle><circle id="1991" cx="409" cy="527.9" r="1.8" fill="#2C8465"></circle><circle id="1992" cx="418.4" cy="527.4" r="1.8" fill="#2C8465"></circle><circle id="1993" cx="427.9" cy="527.2" r="1.8" fill="#2C8465"></circle><circle id="1994" cx="437.4" cy="527" r="1.8" fill="#2C8465"></circle><circle id="1995" cx="446.9" cy="526.9" r="1.8" fill="#2C8465"></circle><circle id="1996" cx="456.3" cy="526.7" r="1.8" fill="#2C8465"></circle><circle id="1997" cx="465.8" cy="526.6" r="1.8" fill="#2C8465"></circle><circle id="1998" cx="475.3" cy="526.5" r="1.8" fill="#2C8465"></circle><circle id="1999" cx="484.8" cy="526.6" r="1.8" fill="#2C8465"></circle><circle id="2000" cx="494.2" cy="526.6" r="1.8" fill="#2C8465"></circle><circle id="2001" cx="503.7" cy="526.5" r="1.8" fill="#2C8465"></circle><circle id="2002" cx="513.2" cy="526.5" r="1.8" fill="#2C8465"></circle><circle id="2003" cx="522.6" cy="526.4" r="1.8" fill="#2C8465"></circle><circle id="2004" cx="532.1" cy="526.4" r="1.8" fill="#2C8465"></circle><circle id="2005" cx="541.6" cy="526.3" r="1.8" fill="#2C8465"></circle><circle id="2006" cx="551.1" cy="526.5" r="1.8" fill="#2C8465"></circle><circle id="2007" cx="560.5" cy="526.5" r="1.8" fill="#2C8465"></circle><circle id="2008" cx="570" cy="526.6" r="1.8" fill="#2C8465"></circle><circle id="2009" cx="579.5" cy="526.5" r="1.8" fill="#2C8465"></circle><circle id="2010" cx="588.9" cy="526.2" r="1.8" fill="#2C8465"></circle><circle id="2011" cx="598.4" cy="526.2" r="1.8" fill="#2C8465"></circle><circle id="2012" cx="607.9" cy="526.1" r="1.8" fill="#2C8465"></circle><circle id="2013" cx="617.4" cy="525.9" r="1.8" fill="#2C8465"></circle><circle id="2014" cx="626.8" cy="526" r="1.8" fill="#2C8465"></circle><circle id="2015" cx="636.3" cy="525.6" r="1.8" fill="#2C8465"></circle><circle id="2016" cx="645.8" cy="525.4" r="1.8" fill="#2C8465"></circle><circle id="2017" cx="655.2" cy="525.2" r="1.8" fill="#2C8465"></circle><circle id="2018" cx="664.7" cy="524.9" r="1.8" fill="#2C8465"></circle><circle id="2019" cx="674.2" cy="525.1" r="1.8" fill="#2C8465"></circle><circle id="2020" cx="683.7" cy="524.8" r="1.8" fill="#2C8465"></circle><circle id="2021" cx="693.1" cy="524.8" r="1.8" fill="#2C8465"></circle><circle id="2022" cx="702.6" cy="525" r="1.8" fill="#2C8465"></circle></g><g id="markers__Indonesia"><circle id="1961" cx="124.8" cy="530.9" r="1.8" fill="#D73C50"></circle><circle id="1962" cx="134.3" cy="530.9" r="1.8" fill="#D73C50"></circle><circle id="1963" cx="143.8" cy="530.9" r="1.8" fill="#D73C50"></circle><circle id="1964" cx="153.2" cy="530.9" r="1.8" fill="#D73C50"></circle><circle id="1965" cx="162.7" cy="530.9" r="1.8" fill="#D73C50"></circle><circle id="1966" cx="172.2" cy="530.9" r="1.8" fill="#D73C50"></circle><circle id="1967" cx="181.6" cy="530.9" r="1.8" fill="#D73C50"></circle><circle id="1968" cx="191.1" cy="530.9" r="1.8" fill="#D73C50"></circle><circle id="1969" cx="200.6" cy="530.9" r="1.8" fill="#D73C50"></circle><circle id="1970" cx="210.1" cy="530.9" r="1.8" fill="#D73C50"></circle><circle id="1971" cx="219.5" cy="530.8" r="1.8" fill="#D73C50"></circle><circle id="1972" cx="229" cy="530.7" r="1.8" fill="#D73C50"></circle><circle id="1973" cx="238.5" cy="530.7" r="1.8" fill="#D73C50"></circle><circle id="1974" cx="248" cy="530.7" r="1.8" fill="#D73C50"></circle><circle id="1975" cx="257.4" cy="530.6" r="1.8" fill="#D73C50"></circle><circle id="1976" cx="266.9" cy="530.6" r="1.8" fill="#D73C50"></circle><circle id="1977" cx="276.4" cy="530.6" r="1.8" fill="#D73C50"></circle><circle id="1978" cx="285.8" cy="530.5" r="1.8" fill="#D73C50"></circle><circle id="1979" cx="295.3" cy="530.3" r="1.8" fill="#D73C50"></circle><circle id="1980" cx="304.8" cy="530.1" r="1.8" fill="#D73C50"></circle><circle id="1981" cx="314.3" cy="530" r="1.8" fill="#D73C50"></circle><circle id="1982" cx="323.7" cy="529.9" r="1.8" fill="#D73C50"></circle><circle id="1983" cx="333.2" cy="529.5" r="1.8" fill="#D73C50"></circle><circle id="1984" cx="342.7" cy="529.4" r="1.8" fill="#D73C50"></circle><circle id="1985" cx="352.1" cy="529.1" r="1.8" fill="#D73C50"></circle><circle id="1986" cx="361.6" cy="528.9" r="1.8" fill="#D73C50"></circle><circle id="1987" cx="371.1" cy="528.7" r="1.8" fill="#D73C50"></circle><circle id="1988" cx="380.6" cy="528.5" r="1.8" fill="#D73C50"></circle><circle id="1989" cx="390" cy="528.2" r="1.8" fill="#D73C50"></circle><circle id="1990" cx="399.5" cy="527.8" r="1.8" fill="#D73C50"></circle><circle id="1991" cx="409" cy="527.3" r="1.8" fill="#D73C50"></circle><circle id="1992" cx="418.4" cy="526.9" r="1.8" fill="#D73C50"></circle><circle id="1993" cx="427.9" cy="526.5" r="1.8" fill="#D73C50"></circle><circle id="1994" cx="437.4" cy="525.7" r="1.8" fill="#D73C50"></circle><circle id="1995" cx="446.9" cy="525.4" r="1.8" fill="#D73C50"></circle><circle id="1996" cx="456.3" cy="524.9" r="1.8" fill="#D73C50"></circle><circle id="1997" cx="465.8" cy="525.2" r="1.8" fill="#D73C50"></circle><circle id="1998" cx="475.3" cy="527.1" r="1.8" fill="#D73C50"></circle><circle id="1999" cx="484.8" cy="527.1" r="1.8" fill="#D73C50"></circle><circle id="2000" cx="494.2" cy="525.8" r="1.8" fill="#D73C50"></circle><circle id="2001" cx="503.7" cy="525.1" r="1.8" fill="#D73C50"></circle><circle id="2002" cx="513.2" cy="523.8" r="1.8" fill="#D73C50"></circle><circle id="2003" cx="522.6" cy="523.6" r="1.8" fill="#D73C50"></circle><circle id="2004" cx="532.1" cy="523.1" r="1.8" fill="#D73C50"></circle><circle id="2005" cx="541.6" cy="523.6" r="1.8" fill="#D73C50"></circle><circle id="2006" cx="551.1" cy="522.6" r="1.8" fill="#D73C50"></circle><circle id="2007" cx="560.5" cy="522.1" r="1.8" fill="#D73C50"></circle><circle id="2008" cx="570" cy="520.9" r="1.8" fill="#D73C50"></circle><circle id="2009" cx="579.5" cy="520.8" r="1.8" fill="#D73C50"></circle><circle id="2010" cx="588.9" cy="520.6" r="1.8" fill="#D73C50"></circle><circle id="2011" cx="598.4" cy="519.9" r="1.8" fill="#D73C50"></circle><circle id="2012" cx="607.9" cy="519.8" r="1.8" fill="#D73C50"></circle><circle id="2013" cx="617.4" cy="519" r="1.8" fill="#D73C50"></circle><circle id="2014" cx="626.8" cy="518.7" r="1.8" fill="#D73C50"></circle><circle id="2015" cx="636.3" cy="517.5" r="1.8" fill="#D73C50"></circle><circle id="2016" cx="645.8" cy="516.2" r="1.8" fill="#D73C50"></circle><circle id="2017" cx="655.2" cy="506.7" r="1.8" fill="#D73C50"></circle><circle id="2018" cx="664.7" cy="505.1" r="1.8" fill="#D73C50"></circle><circle id="2019" cx="674.2" cy="504.3" r="1.8" fill="#D73C50"></circle><circle id="2020" cx="683.7" cy="506" r="1.8" fill="#D73C50"></circle><circle id="2021" cx="693.1" cy="508.6" r="1.8" fill="#D73C50"></circle><circle id="2022" cx="702.6" cy="506.5" r="1.8" fill="#D73C50"></circle></g><g id="markers__India"><circle id="1961" cx="124.8" cy="530.6" r="1.8" fill="#996D39"></circle><circle id="1962" cx="134.3" cy="530.6" r="1.8" fill="#996D39"></circle><circle id="1963" cx="143.8" cy="530.6" r="1.8" fill="#996D39"></circle><circle id="1964" cx="153.2" cy="530.6" r="1.8" fill="#996D39"></circle><circle id="1965" cx="162.7" cy="530.6" r="1.8" fill="#996D39"></circle><circle id="1966" cx="172.2" cy="530.5" r="1.8" fill="#996D39"></circle><circle id="1967" cx="181.6" cy="530.5" r="1.8" fill="#996D39"></circle><circle id="1968" cx="191.1" cy="530.5" r="1.8" fill="#996D39"></circle><circle id="1969" cx="200.6" cy="530.5" r="1.8" fill="#996D39"></circle><circle id="1970" cx="210.1" cy="530.5" r="1.8" fill="#996D39"></circle><circle id="1971" cx="219.5" cy="530.5" r="1.8" fill="#996D39"></circle><circle id="1972" cx="229" cy="530.5" r="1.8" fill="#996D39"></circle><circle id="1973" cx="238.5" cy="530.5" r="1.8" fill="#996D39"></circle><circle id="1974" cx="248" cy="530.4" r="1.8" fill="#996D39"></circle><circle id="1975" cx="257.4" cy="530.4" r="1.8" fill="#996D39"></circle><circle id="1976" cx="266.9" cy="530.4" r="1.8" fill="#996D39"></circle><circle id="1977" cx="276.4" cy="530.4" r="1.8" fill="#996D39"></circle><circle id="1978" cx="285.8" cy="530.4" r="1.8" fill="#996D39"></circle><circle id="1979" cx="295.3" cy="530.3" r="1.8" fill="#996D39"></circle><circle id="1980" cx="304.8" cy="530.2" r="1.8" fill="#996D39"></circle><circle id="1981" cx="314.3" cy="530.1" r="1.8" fill="#996D39"></circle><circle id="1982" cx="323.7" cy="530" r="1.8" fill="#996D39"></circle><circle id="1983" cx="333.2" cy="530" r="1.8" fill="#996D39"></circle><circle id="1984" cx="342.7" cy="529.9" r="1.8" fill="#996D39"></circle><circle id="1985" cx="352.1" cy="529.8" r="1.8" fill="#996D39"></circle><circle id="1986" cx="361.6" cy="529.7" r="1.8" fill="#996D39"></circle><circle id="1987" cx="371.1" cy="529.1" r="1.8" fill="#996D39"></circle><circle id="1988" cx="380.6" cy="529" r="1.8" fill="#996D39"></circle><circle id="1989" cx="390" cy="528.8" r="1.8" fill="#996D39"></circle><circle id="1990" cx="399.5" cy="528.6" r="1.8" fill="#996D39"></circle><circle id="1991" cx="409" cy="527.8" r="1.8" fill="#996D39"></circle><circle id="1992" cx="418.4" cy="527.7" r="1.8" fill="#996D39"></circle><circle id="1993" cx="427.9" cy="527.3" r="1.8" fill="#996D39"></circle><circle id="1994" cx="437.4" cy="527.2" r="1.8" fill="#996D39"></circle><circle id="1995" cx="446.9" cy="527.1" r="1.8" fill="#996D39"></circle><circle id="1996" cx="456.3" cy="527" r="1.8" fill="#996D39"></circle><circle id="1997" cx="465.8" cy="527" r="1.8" fill="#996D39"></circle><circle id="1998" cx="475.3" cy="526.7" r="1.8" fill="#996D39"></circle><circle id="1999" cx="484.8" cy="526.5" r="1.8" fill="#996D39"></circle><circle id="2000" cx="494.2" cy="526.1" r="1.8" fill="#996D39"></circle><circle id="2001" cx="503.7" cy="525.8" r="1.8" fill="#996D39"></circle><circle id="2002" cx="513.2" cy="525.5" r="1.8" fill="#996D39"></circle><circle id="2003" cx="522.6" cy="525" r="1.8" fill="#996D39"></circle><circle id="2004" cx="532.1" cy="524.6" r="1.8" fill="#996D39"></circle><circle id="2005" cx="541.6" cy="524.1" r="1.8" fill="#996D39"></circle><circle id="2006" cx="551.1" cy="523.6" r="1.8" fill="#996D39"></circle><circle id="2007" cx="560.5" cy="522.8" r="1.8" fill="#996D39"></circle><circle id="2008" cx="570" cy="522.1" r="1.8" fill="#996D39"></circle><circle id="2009" cx="579.5" cy="521.4" r="1.8" fill="#996D39"></circle><circle id="2010" cx="588.9" cy="520.9" r="1.8" fill="#996D39"></circle><circle id="2011" cx="598.4" cy="520.7" r="1.8" fill="#996D39"></circle><circle id="2012" cx="607.9" cy="519.1" r="1.8" fill="#996D39"></circle><circle id="2013" cx="617.4" cy="519.9" r="1.8" fill="#996D39"></circle><circle id="2014" cx="626.8" cy="518" r="1.8" fill="#996D39"></circle><circle id="2015" cx="636.3" cy="517.9" r="1.8" fill="#996D39"></circle><circle id="2016" cx="645.8" cy="517.7" r="1.8" fill="#996D39"></circle><circle id="2017" cx="655.2" cy="517.2" r="1.8" fill="#996D39"></circle><circle id="2018" cx="664.7" cy="516.7" r="1.8" fill="#996D39"></circle><circle id="2019" cx="674.2" cy="516.2" r="1.8" fill="#996D39"></circle><circle id="2020" cx="683.7" cy="515.6" r="1.8" fill="#996D39"></circle><circle id="2021" cx="693.1" cy="515.2" r="1.8" fill="#996D39"></circle><circle id="2022" cx="702.6" cy="514.7" r="1.8" fill="#996D39"></circle></g><g id="markers__China"><circle id="1961" cx="124.8" cy="528" r="1.8" fill="#B13507"></circle><circle id="1962" cx="134.3" cy="527.9" r="1.8" fill="#B13507"></circle><circle id="1963" cx="143.8" cy="527.6" r="1.8" fill="#B13507"></circle><circle id="1964" cx="153.2" cy="527.3" r="1.8" fill="#B13507"></circle><circle id="1965" cx="162.7" cy="527.1" r="1.8" fill="#B13507"></circle><circle id="1966" cx="172.2" cy="526.9" r="1.8" fill="#B13507"></circle><circle id="1967" cx="181.6" cy="526.7" r="1.8" fill="#B13507"></circle><circle id="1968" cx="191.1" cy="526.6" r="1.8" fill="#B13507"></circle><circle id="1969" cx="200.6" cy="526.5" r="1.8" fill="#B13507"></circle><circle id="1970" cx="210.1" cy="526.4" r="1.8" fill="#B13507"></circle><circle id="1971" cx="219.5" cy="526.1" r="1.8" fill="#B13507"></circle><circle id="1972" cx="229" cy="525.7" r="1.8" fill="#B13507"></circle><circle id="1973" cx="238.5" cy="525.5" r="1.8" fill="#B13507"></circle><circle id="1974" cx="248" cy="525.3" r="1.8" fill="#B13507"></circle><circle id="1975" cx="257.4" cy="525.1" r="1.8" fill="#B13507"></circle><circle id="1976" cx="266.9" cy="524.7" r="1.8" fill="#B13507"></circle><circle id="1977" cx="276.4" cy="524.5" r="1.8" fill="#B13507"></circle><circle id="1978" cx="285.8" cy="524.2" r="1.8" fill="#B13507"></circle><circle id="1979" cx="295.3" cy="523.8" r="1.8" fill="#B13507"></circle><circle id="1980" cx="304.8" cy="523.4" r="1.8" fill="#B13507"></circle><circle id="1981" cx="314.3" cy="523.3" r="1.8" fill="#B13507"></circle><circle id="1982" cx="323.7" cy="523" r="1.8" fill="#B13507"></circle><circle id="1983" cx="333.2" cy="522.8" r="1.8" fill="#B13507"></circle><circle id="1984" cx="342.7" cy="522.5" r="1.8" fill="#B13507"></circle><circle id="1985" cx="352.1" cy="522.1" r="1.8" fill="#B13507"></circle><circle id="1986" cx="361.6" cy="520.8" r="1.8" fill="#B13507"></circle><circle id="1987" cx="371.1" cy="519.7" r="1.8" fill="#B13507"></circle><circle id="1988" cx="380.6" cy="517.6" r="1.8" fill="#B13507"></circle><circle id="1989" cx="390" cy="517.4" r="1.8" fill="#B13507"></circle><circle id="1990" cx="399.5" cy="516.1" r="1.8" fill="#B13507"></circle><circle id="1991" cx="409" cy="513.7" r="1.8" fill="#B13507"></circle><circle id="1992" cx="418.4" cy="511.6" r="1.8" fill="#B13507"></circle><circle id="1993" cx="427.9" cy="506.7" r="1.8" fill="#B13507"></circle><circle id="1994" cx="437.4" cy="504.1" r="1.8" fill="#B13507"></circle><circle id="1995" cx="446.9" cy="498.8" r="1.8" fill="#B13507"></circle><circle id="1996" cx="456.3" cy="498.1" r="1.8" fill="#B13507"></circle><circle id="1997" cx="465.8" cy="492.3" r="1.8" fill="#B13507"></circle><circle id="1998" cx="475.3" cy="489.5" r="1.8" fill="#B13507"></circle><circle id="1999" cx="484.8" cy="485.3" r="1.8" fill="#B13507"></circle><circle id="2000" cx="494.2" cy="483.4" r="1.8" fill="#B13507"></circle><circle id="2001" cx="503.7" cy="483.9" r="1.8" fill="#B13507"></circle><circle id="2002" cx="513.2" cy="482.9" r="1.8" fill="#B13507"></circle><circle id="2003" cx="522.6" cy="480.4" r="1.8" fill="#B13507"></circle><circle id="2004" cx="532.1" cy="480.2" r="1.8" fill="#B13507"></circle><circle id="2005" cx="541.6" cy="476.7" r="1.8" fill="#B13507"></circle><circle id="2006" cx="551.1" cy="476.8" r="1.8" fill="#B13507"></circle><circle id="2007" cx="560.5" cy="473.1" r="1.8" fill="#B13507"></circle><circle id="2008" cx="570" cy="469.6" r="1.8" fill="#B13507"></circle><circle id="2009" cx="579.5" cy="467.3" r="1.8" fill="#B13507"></circle><circle id="2010" cx="588.9" cy="464.7" r="1.8" fill="#B13507"></circle><circle id="2011" cx="598.4" cy="463" r="1.8" fill="#B13507"></circle><circle id="2012" cx="607.9" cy="458.8" r="1.8" fill="#B13507"></circle><circle id="2013" cx="617.4" cy="459.5" r="1.8" fill="#B13507"></circle><circle id="2014" cx="626.8" cy="461" r="1.8" fill="#B13507"></circle><circle id="2015" cx="636.3" cy="458.8" r="1.8" fill="#B13507"></circle><circle id="2016" cx="645.8" cy="457.3" r="1.8" fill="#B13507"></circle><circle id="2017" cx="655.2" cy="455.2" r="1.8" fill="#B13507"></circle><circle id="2018" cx="664.7" cy="450.6" r="1.8" fill="#B13507"></circle><circle id="2019" cx="674.2" cy="450.5" r="1.8" fill="#B13507"></circle><circle id="2020" cx="683.7" cy="450.1" r="1.8" fill="#B13507"></circle><circle id="2021" cx="693.1" cy="447.8" r="1.8" fill="#B13507"></circle><circle id="2022" cx="702.6" cy="445.9" r="1.8" fill="#B13507"></circle></g><g id="markers__Brazil"><circle id="1961" cx="124.8" cy="530.5" r="1.8" fill="#4C6A9C"></circle><circle id="1962" cx="134.3" cy="530.5" r="1.8" fill="#4C6A9C"></circle><circle id="1963" cx="143.8" cy="530.3" r="1.8" fill="#4C6A9C"></circle><circle id="1964" cx="153.2" cy="530.3" r="1.8" fill="#4C6A9C"></circle><circle id="1965" cx="162.7" cy="530" r="1.8" fill="#4C6A9C"></circle><circle id="1966" cx="172.2" cy="529.9" r="1.8" fill="#4C6A9C"></circle><circle id="1967" cx="181.6" cy="529.7" r="1.8" fill="#4C6A9C"></circle><circle id="1968" cx="191.1" cy="529.6" r="1.8" fill="#4C6A9C"></circle><circle id="1969" cx="200.6" cy="529.6" r="1.8" fill="#4C6A9C"></circle><circle id="1970" cx="210.1" cy="529.3" r="1.8" fill="#4C6A9C"></circle><circle id="1971" cx="219.5" cy="529.3" r="1.8" fill="#4C6A9C"></circle><circle id="1972" cx="229" cy="529.1" r="1.8" fill="#4C6A9C"></circle><circle id="1973" cx="238.5" cy="528.6" r="1.8" fill="#4C6A9C"></circle><circle id="1974" cx="248" cy="528.5" r="1.8" fill="#4C6A9C"></circle><circle id="1975" cx="257.4" cy="528.5" r="1.8" fill="#4C6A9C"></circle><circle id="1976" cx="266.9" cy="528.1" r="1.8" fill="#4C6A9C"></circle><circle id="1977" cx="276.4" cy="527.7" r="1.8" fill="#4C6A9C"></circle><circle id="1978" cx="285.8" cy="526.9" r="1.8" fill="#4C6A9C"></circle><circle id="1979" cx="295.3" cy="525.7" r="1.8" fill="#4C6A9C"></circle><circle id="1980" cx="304.8" cy="524.4" r="1.8" fill="#4C6A9C"></circle><circle id="1981" cx="314.3" cy="524.4" r="1.8" fill="#4C6A9C"></circle><circle id="1982" cx="323.7" cy="523.9" r="1.8" fill="#4C6A9C"></circle><circle id="1983" cx="333.2" cy="524" r="1.8" fill="#4C6A9C"></circle><circle id="1984" cx="342.7" cy="525" r="1.8" fill="#4C6A9C"></circle><circle id="1985" cx="352.1" cy="524.4" r="1.8" fill="#4C6A9C"></circle><circle id="1986" cx="361.6" cy="523.8" r="1.8" fill="#4C6A9C"></circle><circle id="1987" cx="371.1" cy="523.1" r="1.8" fill="#4C6A9C"></circle><circle id="1988" cx="380.6" cy="523.2" r="1.8" fill="#4C6A9C"></circle><circle id="1989" cx="390" cy="522.9" r="1.8" fill="#4C6A9C"></circle><circle id="1990" cx="399.5" cy="521.6" r="1.8" fill="#4C6A9C"></circle><circle id="1991" cx="409" cy="520.5" r="1.8" fill="#4C6A9C"></circle><circle id="1992" cx="418.4" cy="519.5" r="1.8" fill="#4C6A9C"></circle><circle id="1993" cx="427.9" cy="518.4" r="1.8" fill="#4C6A9C"></circle><circle id="1994" cx="437.4" cy="517.3" r="1.8" fill="#4C6A9C"></circle><circle id="1995" cx="446.9" cy="514.8" r="1.8" fill="#4C6A9C"></circle><circle id="1996" cx="456.3" cy="514.8" r="1.8" fill="#4C6A9C"></circle><circle id="1997" cx="465.8" cy="515.7" r="1.8" fill="#4C6A9C"></circle><circle id="1998" cx="475.3" cy="515.5" r="1.8" fill="#4C6A9C"></circle><circle id="1999" cx="484.8" cy="513.9" r="1.8" fill="#4C6A9C"></circle><circle id="2000" cx="494.2" cy="513.4" r="1.8" fill="#4C6A9C"></circle><circle id="2001" cx="503.7" cy="512.1" r="1.8" fill="#4C6A9C"></circle><circle id="2002" cx="513.2" cy="510.3" r="1.8" fill="#4C6A9C"></circle><circle id="2003" cx="522.6" cy="509.8" r="1.8" fill="#4C6A9C"></circle><circle id="2004" cx="532.1" cy="507.8" r="1.8" fill="#4C6A9C"></circle><circle id="2005" cx="541.6" cy="505.6" r="1.8" fill="#4C6A9C"></circle><circle id="2006" cx="551.1" cy="506.2" r="1.8" fill="#4C6A9C"></circle><circle id="2007" cx="560.5" cy="503.1" r="1.8" fill="#4C6A9C"></circle><circle id="2008" cx="570" cy="501.4" r="1.8" fill="#4C6A9C"></circle><circle id="2009" cx="579.5" cy="500.9" r="1.8" fill="#4C6A9C"></circle><circle id="2010" cx="588.9" cy="504" r="1.8" fill="#4C6A9C"></circle><circle id="2011" cx="598.4" cy="502.4" r="1.8" fill="#4C6A9C"></circle><circle id="2012" cx="607.9" cy="502.6" r="1.8" fill="#4C6A9C"></circle><circle id="2013" cx="617.4" cy="501.8" r="1.8" fill="#4C6A9C"></circle><circle id="2014" cx="626.8" cy="501.3" r="1.8" fill="#4C6A9C"></circle><circle id="2015" cx="636.3" cy="499.7" r="1.8" fill="#4C6A9C"></circle><circle id="2016" cx="645.8" cy="499.3" r="1.8" fill="#4C6A9C"></circle><circle id="2017" cx="655.2" cy="499.4" r="1.8" fill="#4C6A9C"></circle><circle id="2018" cx="664.7" cy="500.2" r="1.8" fill="#4C6A9C"></circle><circle id="2019" cx="674.2" cy="499.6" r="1.8" fill="#4C6A9C"></circle><circle id="2020" cx="683.7" cy="498.8" r="1.8" fill="#4C6A9C"></circle><circle id="2021" cx="693.1" cy="498" r="1.8" fill="#4C6A9C"></circle><circle id="2022" cx="702.6" cy="498" r="1.8" fill="#4C6A9C"></circle></g></g></g><g id="footer" class="SourcesFooter" style="fill:#5b5b5b"><g id="sources" class="markdown-text-wrap"><text x="16.0" y="580.9" style="font-size:13.5px;line-height:1.2"><tspan x="16" y="580.9"><tspan style="font-weight:700">Data source:</tspan> Food and Agriculture Organization of the United Nations (2023)</tspan></text></g><text id="origin-url" font-size="13.50" x="792.7" y="580.9"><tspan x="792.69" y="580.895"><a target="_blank" style="fill: #5b5b5b;" href="https://creativecommons.org/licenses/by/4.0/">CC BY</a></tspan></text></g></svg>